<svg xmlns="http://www.w3.org/2000/svg" width="64" height="64" viewBox="0 0 64 64" fill="none">
<rect x="7.68" y="7.68" width="48.64" height="48.64" rx="11.52" fill="none" stroke="#000000" stroke-width="3.20"/>
<path d="M19.13,33.28 L19.13,15.36 L22.67,15.36 L22.67,30.16 L30.24,30.16 L30.24,33.28 L19.13,33.28 Z" fill="#000000"/>
<path d="M43.59,18.48 L35.97,18.48 L35.97,22.35 L42.91,22.35 L42.91,25.47 L35.97,25.47 L35.97,33.28 L32.43,33.28 L32.43,15.36 L43.59,15.36 L43.59,18.48 Z" fill="#000000"/>
<rect x="12.80" y="38.40" width="30.72" height="8.96" rx="3.20" fill="#000000" stroke="none" stroke-width="0.00"/>
<path d="M22.98,39.45 L25.72,39.45 L25.72,40.01 L24.69,40.01 L24.69,43.82 L25.72,43.82 L25.72,44.38 L22.98,44.38 L22.98,43.82 L24.01,43.82 L24.01,40.01 L22.98,40.01 L22.98,39.45 Z" fill="#000000"/>
<path d="M28.23,42.05 Q28.49,42.12 28.67,42.30 Q28.85,42.49 29.12,43.04 L29.79,44.38 L29.08,44.38 L28.49,43.14 Q28.23,42.61 28.03,42.45 Q27.83,42.30 27.50,42.30 L26.86,42.30 L26.86,44.38 L26.19,44.38 L26.19,39.45 L27.57,39.45 Q28.38,39.45 28.81,39.82 Q29.25,40.18 29.25,40.88 Q29.25,41.37 28.98,41.68 Q28.71,41.98 28.23,42.05 Z M26.86,40.00 L26.86,41.75 L27.59,41.75 Q28.07,41.75 28.31,41.53 Q28.54,41.32 28.54,40.88 Q28.54,40.45 28.29,40.22 Q28.04,40.00 27.57,40.00 L26.86,40.00 Z" fill="#000000"/>
<path d="M33.34,44.21 Q33.09,44.34 32.82,44.41 Q32.55,44.48 32.25,44.48 Q31.30,44.48 30.78,43.81 Q30.25,43.14 30.25,41.92 Q30.25,40.71 30.78,40.04 Q31.31,39.36 32.25,39.36 Q32.55,39.36 32.82,39.43 Q33.09,39.50 33.34,39.63 L33.34,40.32 Q33.10,40.11 32.82,40.01 Q32.53,39.90 32.25,39.90 Q31.60,39.90 31.28,40.40 Q30.95,40.91 30.95,41.92 Q30.95,42.93 31.28,43.44 Q31.60,43.94 32.25,43.94 Q32.54,43.94 32.82,43.83 Q33.10,43.73 33.34,43.52 L33.34,44.21 Z" fill="#000000"/>
</svg>