<svg xmlns="http://www.w3.org/2000/svg" width="412" height="276" viewBox="0 0 412 276" fill="none">
<rect x="84.00" y="38.00" width="86.00" height="86.00" rx="18.00" fill="none" stroke="#0047b2" stroke-width="8.00"/>
<path d="M109.26,85.00 L109.26,59.00 L114.39,59.00 L114.39,80.47 L125.38,80.47 L125.38,85.00 L109.26,85.00 Z" fill="#171d23"/>
<path d="M144.74,63.53 L133.69,63.53 L133.69,69.14 L143.75,69.14 L143.75,73.67 L133.69,73.67 L133.69,85.00 L128.55,85.00 L128.55,59.00 L144.74,59.00 L144.74,63.53 Z" fill="#171d23"/>
<path d="M85.92,210.70 L85.92,144.00 L99.10,144.00 L99.10,199.08 L127.29,199.08 L127.29,210.70 L85.92,210.70 Z" fill="#171d23"/>
<path d="M176.97,155.62 L148.61,155.62 L148.61,170.00 L174.42,170.00 L174.42,181.62 L148.61,181.62 L148.61,210.70 L135.43,210.70 L135.43,144.00 L176.97,144.00 L176.97,155.62 Z" fill="#171d23"/>
<path d="M224.81,178.22 L224.81,210.70 L211.82,210.70 L211.82,180.24 Q211.82,174.78 210.27,172.43 Q208.73,170.09 205.24,170.09 Q201.71,170.09 199.68,173.26 Q197.65,176.43 197.65,182.07 L197.65,210.70 L184.66,210.70 L184.66,160.67 L197.65,160.67 L197.65,168.17 Q199.04,164.01 202.38,161.74 Q205.74,159.47 210.47,159.47 Q217.58,159.47 221.20,164.18 Q224.81,168.89 224.81,178.22 Z" fill="#171d23"/>
<path d="M274.04,208.24 Q269.48,210.11 264.75,211.06 Q260.02,212.00 254.75,212.00 Q242.19,212.00 235.56,205.28 Q228.93,198.55 228.93,185.91 Q228.93,173.66 235.30,166.57 Q241.69,159.47 252.73,159.47 Q263.85,159.47 270.00,166.06 Q276.14,172.63 276.14,184.61 L276.14,189.93 L242.24,189.93 Q242.28,195.82 245.71,198.73 Q249.16,201.64 255.99,201.64 Q260.51,201.64 264.88,200.34 Q269.25,199.03 274.04,196.22 L274.04,208.24 Z M262.97,180.09 Q262.88,174.92 260.31,172.26 Q257.73,169.60 252.73,169.60 Q248.23,169.60 245.54,172.35 Q242.87,175.09 242.37,180.14 L262.97,180.09 Z" fill="#171d23"/>
<path d="M306.96,146.46 L306.96,160.67 L324.08,160.67 L324.08,170.72 L306.96,170.72 L306.96,194.39 Q306.96,197.75 308.59,199.21 Q310.22,200.65 314.03,200.65 L324.08,200.65 L324.08,210.70 L313.08,210.70 Q301.83,210.70 297.86,207.11 Q293.88,203.51 293.88,193.77 L293.88,170.72 L281.11,170.72 L281.11,160.67 L293.88,160.67 L293.88,146.46 L306.96,146.46 Z" fill="#171d23"/>
<rect x="132.00" y="220.00" width="144.00" height="32.00" rx="12.00" fill="none" stroke="#0047b2" stroke-width="5.00"/>
<path d="M190.56,228.41 L190.56,226.23 L198.02,226.23 L198.02,228.41 L195.53,228.41 L195.53,236.57 L198.02,236.57 L198.02,238.76 L190.56,238.76 L190.56,236.57 L193.05,236.57 L193.05,228.41 L190.56,228.41 Z" fill="#0047b2"/>
<path d="M204.79,232.84 Q205.16,232.91 205.44,233.19 Q205.71,233.46 206.10,234.25 L208.37,238.76 L205.65,238.76 L204.14,235.59 Q204.07,235.46 203.96,235.22 Q203.30,233.80 202.40,233.80 L201.61,233.80 L201.61,238.76 L199.14,238.76 L199.14,226.23 L202.71,226.23 Q205.13,226.23 206.18,227.08 Q207.23,227.94 207.23,229.87 Q207.23,231.16 206.61,231.93 Q205.98,232.69 204.79,232.84 Z M201.61,228.31 L201.61,231.72 L202.78,231.72 Q203.79,231.72 204.23,231.33 Q204.68,230.93 204.68,230.01 Q204.68,229.10 204.24,228.70 Q203.80,228.31 202.78,228.31 L201.61,228.31 Z" fill="#0047b2"/>
<path d="M217.44,238.40 Q216.85,238.70 216.20,238.85 Q215.56,239.00 214.85,239.00 Q212.31,239.00 210.98,237.33 Q209.64,235.66 209.64,232.50 Q209.64,229.34 210.98,227.67 Q212.31,226.00 214.85,226.00 Q215.56,226.00 216.21,226.15 Q216.87,226.30 217.44,226.60 L217.44,229.36 Q216.80,228.77 216.20,228.50 Q215.60,228.22 214.96,228.22 Q213.60,228.22 212.91,229.30 Q212.22,230.38 212.22,232.50 Q212.22,234.62 212.91,235.70 Q213.60,236.77 214.96,236.77 Q215.60,236.77 216.20,236.50 Q216.80,236.23 217.44,235.64 L217.44,238.40 Z" fill="#0047b2"/>
</svg>