<svg xmlns="http://www.w3.org/2000/svg" width="386" height="386" viewBox="0 0 386 386" fill="none">
<rect x="0.00" y="0.00" width="386.00" height="386.00" rx="65.62" fill="#27313a" stroke="none" stroke-width="0.00"/>
<rect x="46.32" y="46.32" width="293.36" height="293.36" rx="69.48" fill="none" stroke="#5f6b77" stroke-width="19.30"/>
<path d="M115.38,200.72 L115.38,92.64 L136.73,92.64 L136.73,181.89 L182.41,181.89 L182.41,200.72 L115.38,200.72 Z" fill="#171d23"/>
<path d="M262.90,111.47 L216.95,111.47 L216.95,134.77 L258.78,134.77 L258.78,153.61 L216.95,153.61 L216.95,200.72 L195.59,200.72 L195.59,92.64 L262.90,92.64 L262.90,111.47 Z" fill="#171d23"/>
<rect x="77.20" y="231.60" width="185.28" height="54.04" rx="19.30" fill="#0047b2" stroke="none" stroke-width="0.00"/>
<path d="M138.59,237.93 L155.12,237.93 L155.12,241.32 L148.88,241.32 L148.88,264.30 L155.12,264.30 L155.12,267.69 L138.59,267.69 L138.59,264.30 L144.83,264.30 L144.83,241.32 L138.59,241.32 L138.59,237.93 Z" fill="#ffffff"/>
<path d="M170.27,253.64 Q171.83,254.03 172.92,255.14 Q174.02,256.25 175.65,259.56 L179.70,267.69 L175.37,267.69 L171.83,260.18 Q170.29,256.97 169.06,256.04 Q167.84,255.11 165.86,255.11 L162.02,255.11 L162.02,267.69 L157.97,267.69 L157.97,237.93 L166.26,237.93 Q171.17,237.93 173.78,240.14 Q176.39,242.35 176.39,246.54 Q176.39,249.49 174.78,251.35 Q173.18,253.22 170.27,253.64 Z M162.02,241.24 L162.02,251.80 L166.42,251.80 Q169.31,251.80 170.73,250.50 Q172.15,249.21 172.15,246.54 Q172.15,243.97 170.64,242.60 Q169.14,241.24 166.26,241.24 L162.02,241.24 Z" fill="#ffffff"/>
<path d="M201.09,266.63 Q199.56,267.45 197.94,267.86 Q196.32,268.27 194.51,268.27 Q188.79,268.27 185.62,264.23 Q182.47,260.18 182.47,252.84 Q182.47,245.54 185.64,241.47 Q188.83,237.39 194.51,237.39 Q196.32,237.39 197.94,237.80 Q199.56,238.21 201.09,239.02 L201.09,243.15 Q199.61,241.93 197.92,241.29 Q196.23,240.66 194.51,240.66 Q190.58,240.66 188.63,243.69 Q186.68,246.72 186.68,252.84 Q186.68,258.94 188.63,261.97 Q190.58,265.00 194.51,265.00 Q196.26,265.00 197.95,264.36 Q199.63,263.72 201.09,262.50 L201.09,266.63 Z" fill="#ffffff"/>
</svg>