<svg xmlns="http://www.w3.org/2000/svg" width="386" height="276" viewBox="0 0 386 276" fill="none">
<path d="M51.92,124.62 L51.92,54.00 L65.88,54.00 L65.88,112.32 L95.72,112.32 L95.72,124.62 L51.92,124.62 Z" fill="#eef4ff"/>
<path d="M148.32,66.31 L118.29,66.31 L118.29,81.53 L145.62,81.53 L145.62,93.84 L118.29,93.84 L118.29,124.62 L104.34,124.62 L104.34,54.00 L148.32,54.00 L148.32,66.31 Z" fill="#eef4ff"/>
<path d="M198.98,90.23 L198.98,124.62 L185.22,124.62 L185.22,92.37 Q185.22,86.59 183.59,84.10 Q181.95,81.62 178.26,81.62 Q174.52,81.62 172.37,84.98 Q170.22,88.34 170.22,94.31 L170.22,124.62 L156.46,124.62 L156.46,71.65 L170.22,71.65 L170.22,79.59 Q171.69,75.19 175.23,72.78 Q178.79,70.38 183.80,70.38 Q191.32,70.38 195.15,75.37 Q198.98,80.35 198.98,90.23 Z" fill="#eef4ff"/>
<path d="M251.10,122.02 Q246.28,124.00 241.27,125.00 Q236.26,126.00 230.67,126.00 Q217.38,126.00 210.36,118.89 Q203.34,111.76 203.34,98.38 Q203.34,85.41 210.09,77.90 Q216.85,70.38 228.54,70.38 Q240.31,70.38 246.82,77.35 Q253.33,84.32 253.33,97.00 L253.33,102.63 L217.43,102.63 Q217.47,108.87 221.11,111.95 Q224.75,115.03 231.99,115.03 Q236.77,115.03 241.40,113.65 Q246.03,112.27 251.10,109.29 L251.10,122.02 Z M239.37,92.22 Q239.28,86.74 236.56,83.92 Q233.84,81.11 228.54,81.11 Q223.77,81.11 220.92,84.01 Q218.09,86.92 217.56,92.26 L239.37,92.22 Z" fill="#eef4ff"/>
<path d="M285.96,56.60 L285.96,71.65 L304.08,71.65 L304.08,82.29 L285.96,82.29 L285.96,107.35 Q285.96,110.91 287.69,112.45 Q289.41,113.98 293.44,113.98 L304.08,113.98 L304.08,124.62 L292.44,124.62 Q280.53,124.62 276.32,120.82 Q272.11,117.01 272.11,106.70 L272.11,82.29 L258.58,82.29 L258.58,71.65 L272.11,71.65 L272.11,56.60 L285.96,56.60 Z" fill="#eef4ff"/>
<rect x="72.00" y="152.00" width="122.00" height="42.00" rx="14.00" fill="none" stroke="#6aa0ff" stroke-width="6.00"/>
<path d="M112.32,163.71 L112.32,160.35 L123.80,160.35 L123.80,163.71 L119.97,163.71 L119.97,176.27 L123.80,176.27 L123.80,179.62 L112.32,179.62 L112.32,176.27 L116.16,176.27 L116.16,163.71 L112.32,163.71 Z" fill="#6aa0ff"/>
<path d="M134.22,170.52 Q134.79,170.64 135.21,171.06 Q135.63,171.48 136.23,172.69 L139.72,179.62 L135.54,179.62 L133.21,174.76 Q133.11,174.55 132.94,174.19 Q131.92,172.01 130.54,172.01 L129.33,172.01 L129.33,179.62 L125.52,179.62 L125.52,160.35 L131.02,160.35 Q134.74,160.35 136.36,161.66 Q137.98,162.98 137.98,165.95 Q137.98,167.94 137.01,169.12 Q136.04,170.29 134.22,170.52 Z M129.33,163.55 L129.33,168.80 L131.12,168.80 Q132.68,168.80 133.36,168.19 Q134.04,167.58 134.04,166.17 Q134.04,164.76 133.37,164.16 Q132.70,163.55 131.12,163.55 L129.33,163.55 Z" fill="#6aa0ff"/>
<path d="M153.68,179.07 Q152.77,179.53 151.78,179.76 Q150.78,180.00 149.69,180.00 Q145.79,180.00 143.74,177.43 Q141.68,174.86 141.68,170.01 Q141.68,165.14 143.74,162.57 Q145.79,160.00 149.69,160.00 Q150.78,160.00 151.79,160.23 Q152.80,160.46 153.68,160.93 L153.68,165.16 Q152.70,164.26 151.77,163.84 Q150.85,163.42 149.87,163.42 Q147.78,163.42 146.71,165.08 Q145.64,166.74 145.64,170.01 Q145.64,173.26 146.71,174.92 Q147.78,176.58 149.87,176.58 Q150.85,176.58 151.77,176.16 Q152.70,175.74 153.68,174.84 L153.68,179.07 Z" fill="#6aa0ff"/>
<line x1="48.00" y1="214.00" x2="308.00" y2="214.00" stroke="#8ea6c9" stroke-width="5.00" stroke-linecap="round" opacity="0.4"/>
</svg>