<svg xmlns="http://www.w3.org/2000/svg" width="838" height="276" viewBox="0 0 838 276" fill="none">
<path d="M105.89,160.09 L105.89,62.00 L125.27,62.00 L125.27,143.00 L166.73,143.00 L166.73,160.09 L105.89,160.09 Z" fill="#171d23"/>
<path d="M239.78,79.09 L198.07,79.09 L198.07,100.24 L236.03,100.24 L236.03,117.33 L198.07,117.33 L198.07,160.09 L178.69,160.09 L178.69,62.00 L239.78,62.00 L239.78,79.09 Z" fill="#171d23"/>
<path d="M310.14,112.33 L310.14,160.09 L291.03,160.09 L291.03,115.29 Q291.03,107.26 288.76,103.81 Q286.49,100.36 281.36,100.36 Q276.17,100.36 273.18,105.03 Q270.19,109.70 270.19,117.98 L270.19,160.09 L251.09,160.09 L251.09,86.51 L270.19,86.51 L270.19,97.55 Q272.23,91.43 277.15,88.09 Q282.09,84.75 289.05,84.75 Q299.50,84.75 304.82,91.68 Q310.14,98.60 310.14,112.33 Z" fill="#171d23"/>
<path d="M382.53,156.47 Q375.83,159.23 368.87,160.61 Q361.91,162.00 354.16,162.00 Q335.70,162.00 325.94,152.12 Q316.19,142.22 316.19,123.64 Q316.19,105.62 325.57,95.19 Q334.96,84.75 351.19,84.75 Q367.55,84.75 376.59,94.44 Q385.62,104.11 385.62,121.72 L385.62,129.54 L335.76,129.54 Q335.82,138.20 340.87,142.49 Q345.94,146.76 355.98,146.76 Q362.63,146.76 369.06,144.85 Q375.49,142.93 382.53,138.79 L382.53,156.47 Z M366.24,115.08 Q366.12,107.47 362.33,103.56 Q358.55,99.65 351.19,99.65 Q344.57,99.65 340.62,103.69 Q336.69,107.72 335.95,115.14 L366.24,115.08 Z" fill="#171d23"/>
<path d="M430.95,65.62 L430.95,86.51 L456.11,86.51 L456.11,101.29 L430.95,101.29 L430.95,136.10 Q430.95,141.04 433.34,143.19 Q435.74,145.31 441.33,145.31 L456.11,145.31 L456.11,160.09 L439.94,160.09 Q423.40,160.09 417.56,154.81 Q411.71,149.51 411.71,135.20 L411.71,101.29 L392.92,101.29 L392.92,86.51 L411.71,86.51 L411.71,65.62 L430.95,65.62 Z" fill="#171d23"/>
<rect x="523.00" y="74.00" width="190.00" height="64.00" rx="22.00" fill="none" stroke="#0047b2" stroke-width="8.00"/>
<path d="M586.99,94.56 L586.99,89.52 L604.20,89.52 L604.20,94.56 L598.45,94.56 L598.45,113.40 L604.20,113.40 L604.20,118.44 L586.99,118.44 L586.99,113.40 L592.74,113.40 L592.74,94.56 L586.99,94.56 Z" fill="#0047b2"/>
<path d="M619.83,104.78 Q620.68,104.96 621.31,105.59 Q621.94,106.22 622.85,108.04 L628.08,118.44 L621.81,118.44 L618.32,111.14 Q618.16,110.83 617.92,110.28 Q616.39,107.01 614.31,107.01 L612.49,107.01 L612.49,118.44 L606.78,118.44 L606.78,89.52 L615.03,89.52 Q620.61,89.52 623.04,91.50 Q625.46,93.47 625.46,97.93 Q625.46,100.91 624.01,102.68 Q622.56,104.44 619.83,104.78 Z M612.49,94.32 L612.49,102.21 L615.18,102.21 Q617.53,102.21 618.54,101.29 Q619.56,100.37 619.56,98.26 Q619.56,96.15 618.55,95.23 Q617.54,94.32 615.18,94.32 L612.49,94.32 Z" fill="#0047b2"/>
<path d="M649.01,117.61 Q647.66,118.30 646.16,118.65 Q644.68,119.00 643.03,119.00 Q637.18,119.00 634.10,115.15 Q631.02,111.29 631.02,104.01 Q631.02,96.71 634.10,92.85 Q637.18,89.00 643.03,89.00 Q644.68,89.00 646.19,89.35 Q647.70,89.69 649.01,90.39 L649.01,96.75 Q647.54,95.39 646.16,94.76 Q644.77,94.13 643.30,94.13 Q640.16,94.13 638.56,96.62 Q636.97,99.11 636.97,104.01 Q636.97,108.89 638.56,111.38 Q640.16,113.86 643.30,113.86 Q644.77,113.86 646.16,113.24 Q647.54,112.60 649.01,111.25 L649.01,117.61 Z" fill="#0047b2"/>
<line x1="66.00" y1="190.00" x2="713.00" y2="190.00" stroke="#5f6b77" stroke-width="5.00" stroke-linecap="round" opacity="0.45"/>
<line x1="66.00" y1="190.00" x2="238.00" y2="190.00" stroke="#0047b2" stroke-width="10.00" stroke-linecap="round"/>
</svg>